<svg width="416" height="330" viewBox="0 0 416 330" fill="none" xmlns="http://www.w3.org/2000/svg">
<path d="M39.9995 60.3248C39.9995 54.6622 42.0066 49.9096 46.0206 46.0671C49.834 42.0224 54.5505 40 60.1703 40H183.188C188.808 40 193.524 42.0224 197.338 46.0671C201.352 49.9096 203.359 54.6622 203.359 60.3248C203.359 65.9875 201.452 70.8412 197.639 74.8859C193.624 78.7284 188.808 80.6497 183.188 80.6497H60.1703C54.5505 80.6497 49.7337 78.7284 45.7196 74.8859C41.9062 70.8412 39.9995 65.9875 39.9995 60.3248Z" fill="url(#paint0_linear_253_31716)"/>
<path d="M203.639 125.885V241.463C203.639 246.519 206.248 249.148 211.466 249.35H316.836C320.649 249.148 323.961 247.53 326.771 244.497C329.581 241.261 331.588 237.621 332.792 233.576C334.197 229.329 334.899 225.082 334.899 220.835C334.899 216.79 334.197 212.745 332.792 208.701C331.588 204.454 329.581 200.813 326.771 197.78C323.961 194.544 320.649 192.926 316.836 192.926H239.766C234.146 192.926 229.329 191.005 225.315 187.162C221.502 183.118 219.595 178.264 219.595 172.601C219.595 166.939 221.602 162.186 225.616 158.344C229.429 154.299 234.146 152.277 239.766 152.277H315.632C329.681 152.479 341.221 156.523 350.253 164.411C359.486 172.096 366.008 180.893 369.822 190.803C373.836 200.51 375.843 210.622 375.843 221.138C375.843 231.25 373.836 241.261 369.822 251.171C365.808 260.878 359.285 269.675 350.253 277.562C341.221 285.247 327.875 289.393 310.213 290H183.769C178.15 290 173.333 288.18 169.319 284.54C165.304 280.697 163.197 275.945 162.996 270.282V125.885C162.996 120.222 165.003 115.57 169.018 111.93C173.232 108.088 178.15 106.166 183.769 106.166C195.811 107.178 202.435 113.75 203.639 125.885Z" fill="url(#paint1_linear_253_31716)"/>
<path d="M75.4341 122.105C75.4341 116.442 77.4412 111.69 81.4552 107.847C85.2686 103.802 89.9852 101.78 95.6049 101.78H183.188C188.808 101.78 193.524 103.802 197.338 107.847C201.352 111.69 203.359 116.442 203.359 122.105C203.359 127.767 201.452 132.621 197.639 136.666C193.624 140.508 188.808 142.43 183.188 142.43H95.6049C89.9852 142.43 85.1683 140.508 81.1542 136.666C77.3408 132.621 75.4341 127.767 75.4341 122.105Z" fill="url(#paint2_linear_253_31716)"/>
<path d="M280.453 40.6695L292.416 73.2465L324.746 85.3011L292.416 97.3557L280.453 129.933L268.49 97.3557L236.16 85.3011L268.49 73.2465L280.453 40.6695Z" fill="#0BDBEA"/>
<defs>
<linearGradient id="paint0_linear_253_31716" x1="207.921" y1="40" x2="207.921" y2="294" gradientUnits="userSpaceOnUse">
<stop stop-color="#5A31E2"/>
<stop offset="1" stop-color="#C8D2FF"/>
</linearGradient>
<linearGradient id="paint1_linear_253_31716" x1="207.921" y1="40" x2="207.921" y2="294" gradientUnits="userSpaceOnUse">
<stop stop-color="#5A31E2"/>
<stop offset="1" stop-color="#C8D2FF"/>
</linearGradient>
<linearGradient id="paint2_linear_253_31716" x1="207.921" y1="40" x2="207.921" y2="294" gradientUnits="userSpaceOnUse">
<stop stop-color="#5A31E2"/>
<stop offset="1" stop-color="#C8D2FF"/>
</linearGradient>
</defs>
</svg>
